<svg width="52" height="43" viewBox="0 0 52 43" fill="none" xmlns="http://www.w3.org/2000/svg">
<path d="M20.3467 3.03914C16.5331 1.21839 11.2028 0.326485 4.06648 0.29482C3.39345 0.285676 2.73363 0.481928 2.17501 0.857406C1.71648 1.16733 1.34114 1.58519 1.08199 2.07421C0.822848 2.56324 0.687842 3.10845 0.688848 3.66189L0.688848 33.86C0.688848 35.9014 2.14123 37.4414 4.06648 37.4414C11.568 37.4414 19.0927 38.1422 23.5997 42.4022C23.6614 42.4608 23.7389 42.4999 23.8226 42.5148C23.9063 42.5297 23.9925 42.5196 24.0706 42.4859C24.1486 42.4521 24.215 42.3962 24.2616 42.325C24.3081 42.2539 24.3327 42.1706 24.3323 42.0856L24.3323 6.50332C24.3324 6.26327 24.281 6.02598 24.1816 5.80747C24.0821 5.58897 23.937 5.39434 23.7559 5.23671C22.7236 4.35413 21.5768 3.61494 20.3467 3.03914ZM49.8671 0.85424C49.3082 0.479696 48.6484 0.28454 47.9757 0.29482C40.8394 0.326485 35.509 1.21417 31.6955 3.03914C30.4654 3.61388 29.3183 4.35163 28.2851 5.23249C28.1044 5.39035 27.9596 5.58505 27.8604 5.80352C27.7612 6.02198 27.7098 6.25916 27.7099 6.4991L27.7099 42.0835C27.7098 42.1652 27.7339 42.2451 27.7791 42.3131C27.8243 42.3812 27.8886 42.4344 27.9639 42.4661C28.0392 42.4978 28.1222 42.5065 28.2024 42.4912C28.2827 42.4759 28.3566 42.4373 28.415 42.3801C31.1245 39.6885 35.8795 37.4382 47.9799 37.4392C48.8757 37.4392 49.7348 37.0834 50.3682 36.45C51.0017 35.8165 51.3575 34.9574 51.3575 34.0616V3.66295C51.3588 3.10841 51.2234 2.5621 50.9635 2.07225C50.7036 1.5824 50.327 1.16409 49.8671 0.85424Z" fill="#173F63"/>
</svg>
