<svg width="50" height="44" viewBox="0 0 50 44" fill="none" xmlns="http://www.w3.org/2000/svg">
<path d="M29.7972 18.6828C29.3749 18.2606 28.8022 18.0235 28.2052 18.0235C27.6081 18.0235 27.0354 18.2606 26.6132 18.6828L25.0212 20.2725C24.1718 21.0929 23.0342 21.5468 21.8534 21.5365C20.6726 21.5263 19.5431 21.0526 18.7081 20.2177C17.8731 19.3827 17.3995 18.2531 17.3892 17.0723C17.3789 15.8915 17.8329 14.7539 18.6532 13.9046L31.3306 1.22268C34.332 0.540012 37.4723 0.820967 40.3048 2.0256C43.1374 3.23024 45.5181 5.29723 47.1084 7.93266C48.6987 10.5681 49.4176 13.6378 49.163 16.7054C48.9083 19.7729 47.6931 22.6821 45.69 25.0192L40.9433 29.8267L29.7972 18.6828ZM5.11794 5.14524C7.44733 2.81445 10.4951 1.33792 13.768 0.954607C17.0408 0.571294 20.3473 1.30363 23.1522 3.03309L15.467 10.7206C13.8025 12.3818 12.8537 14.628 12.8233 16.9795C12.7929 19.3309 13.6834 21.6009 15.3044 23.3046C16.9254 25.0082 19.1484 26.0103 21.4984 26.0968C23.8485 26.1832 26.1391 25.3472 27.8809 23.7672L28.2052 23.4587L37.7594 33.0107L28.2052 42.5649C27.3606 43.4091 26.2154 43.8834 25.0212 43.8834C23.827 43.8834 22.6817 43.4091 21.8372 42.5649L5.11569 25.8434C2.3711 23.0985 0.829224 19.3759 0.829224 15.4943C0.829224 11.6127 2.37335 7.89006 5.11794 5.14524Z" fill="#E05827"/>
</svg>
