<svg width="271" height="201" viewBox="0 0 271 201" fill="none" xmlns="http://www.w3.org/2000/svg">
<circle cx="135.197" cy="100.449" r="80.6056" stroke="#DC241F" stroke-width="38.8372"/>
<rect x="-0.00012207" y="64.9094" width="270.761" height="71.0795" fill="#000080"/>
<path d="M62.7407 102.896C63.2747 103.163 63.6485 103.644 64.1291 104.018C64.5564 104.445 65.037 104.765 65.4108 105.246C65.7846 105.673 66.8526 107.916 67.0663 108.504C67.2265 109.038 67.2799 109.625 67.3333 110.266C67.4401 110.853 67.5469 111.441 67.5469 112.028C67.5469 112.402 67.4935 112.722 67.4401 113.043C67.4401 113.363 67.4935 113.684 67.4401 114.004C67.3867 114.378 67.3867 114.698 67.3333 115.019C67.2799 115.339 67.0129 115.606 66.9061 115.926C66.9061 115.98 66.8526 116.033 66.8526 116.14L66.7458 116.621C66.7458 117.101 65.838 118.223 65.5176 118.597L65.4642 118.703L65.4108 118.757L65.1972 119.184C65.1972 119.184 65.1972 119.237 65.1438 119.237L65.0904 119.344C64.8234 119.611 64.5564 119.825 64.2893 120.038C64.0757 120.305 63.9155 120.626 63.6485 120.839C63.3815 121 63.0611 121.053 62.6873 121.32H62.5805C62.5805 121.373 62.5271 121.373 62.5271 121.373L62.0999 121.587C62.0999 121.587 62.0465 121.587 62.0465 121.64H61.9397C61.5658 121.854 61.3522 122.121 61.0852 122.281L60.1774 122.708C60.124 122.708 60.0172 122.762 59.9638 122.815L59.4832 123.029C59.4298 123.082 59.3763 123.082 59.2695 123.136C58.9491 123.189 58.5753 123.136 58.2549 123.243C58.2015 123.243 58.0947 123.296 58.0413 123.349L57.5607 123.563C57.5073 123.616 57.4539 123.616 57.3471 123.67C57.2937 123.67 57.2403 123.723 57.1335 123.723H56.6528C56.5994 123.723 56.4926 123.777 56.3858 123.777C56.0654 123.83 55.745 123.883 55.3712 123.937C55.0508 123.99 54.7838 124.15 54.41 124.15C54.3566 124.15 54.3031 124.15 54.1963 124.15L53.7157 124.204C53.6623 124.204 53.5555 124.204 53.4487 124.204C53.1283 124.204 52.8079 124.311 52.4341 124.364C52.3807 124.364 52.3273 124.364 52.2205 124.364L51.7398 124.257C50.9922 124.257 50.2446 124.311 49.497 124.471C49.2299 124.471 48.9629 124.417 48.4823 124.417C47.9483 124.417 47.7347 124.524 47.4677 124.524C47.2007 124.524 46.9337 124.364 46.453 124.364C45.7588 124.364 45.118 124.364 44.4238 124.364C43.9431 124.364 43.6761 124.417 43.4625 124.417C43.1955 124.417 42.9285 124.417 42.4479 124.417C41.9139 124.417 41.7002 124.311 41.4332 124.364C41.1662 124.364 40.8992 124.364 40.4186 124.364C39.7244 124.364 39.0835 124.364 38.3893 124.364C37.7485 124.364 37.2145 123.83 37.2145 123.189C37.2145 122.708 37.3213 122.495 37.3213 122.228C37.3213 122.014 37.2145 121.747 37.2145 121.267C37.2145 120.786 37.2679 120.572 37.2679 120.305C37.2679 120.092 37.3213 119.825 37.3213 119.344C37.3213 118.864 37.3747 118.65 37.3747 118.383V116.46C37.3747 116.247 37.2679 115.98 37.2679 115.499V113.577C37.2679 113.096 37.3213 112.883 37.3213 112.615C37.3213 112.402 37.2145 112.135 37.2145 111.654C37.2145 111.174 37.1611 110.96 37.1611 110.693C37.1611 110.479 37.1611 110.212 37.1611 109.732C37.1611 109.251 37.3213 109.038 37.3213 108.771C37.3213 108.13 37.3213 107.489 37.3213 106.848C37.3213 106.634 37.1611 106.367 37.1611 105.887C37.1611 105.406 37.2679 105.193 37.2679 104.926C37.2679 104.712 37.1611 104.445 37.1611 103.964C37.1611 103.484 37.2679 103.27 37.2679 103.003C37.2679 102.79 37.1611 102.522 37.1611 102.042C37.1611 101.561 37.1077 101.348 37.1077 101.081C37.1077 100.867 37.2145 100.6 37.2145 100.119C37.2145 99.6388 37.2145 99.4252 37.1611 99.1582C37.1611 98.9445 37.1611 98.6775 37.1611 98.1969C37.1611 97.7163 37.2679 97.5027 37.2679 97.2357C37.2679 97.0221 37.3213 96.7551 37.3213 96.2744C37.3213 95.7938 37.1611 95.5802 37.1077 95.3132C37.1077 94.6724 37.1611 93.9782 37.2679 93.3907C37.2679 93.1771 37.3213 92.9101 37.3213 92.4295C37.3213 91.9489 37.1611 91.7353 37.1611 91.4683C37.1611 91.2546 37.1077 90.9876 37.1077 90.507C37.1077 89.5458 37.1077 89.5458 37.1077 88.5845C37.1077 87.6233 37.2679 87.6233 37.2679 86.6621C37.2679 86.1814 37.2679 85.9678 37.3213 85.7008C37.3213 85.4872 37.2679 85.2202 37.2679 84.7396C37.2679 84.259 37.1611 84.0454 37.1611 83.7783C37.1611 82.8705 37.1611 81.7491 38.3893 81.7491C38.9233 81.7491 39.1369 81.8025 39.404 81.8025C39.6176 81.8025 39.8846 81.6957 40.3652 81.6957C40.8458 81.6957 41.1128 81.7491 41.3264 81.7491C41.5934 81.7491 41.807 81.5889 42.3411 81.5889C42.8217 81.5889 43.0353 81.5889 43.3023 81.5889C43.5159 81.5889 43.7829 81.7491 44.2635 81.7491C44.7442 81.7491 45.0112 81.6957 45.2248 81.6957C45.4918 81.7491 45.7588 81.6423 46.2394 81.6423H49.1231C49.3902 81.5889 49.6572 81.6957 50.1378 81.6957C50.6184 81.6957 50.8854 81.5355 51.099 81.5355C51.7932 81.5355 52.4341 81.5355 53.1283 81.5355L53.2885 81.5889H53.3419L53.8225 81.7491C53.9293 81.7491 54.0361 81.8025 54.0895 81.8025C54.41 81.8025 54.7304 81.8025 55.0508 81.8025C55.4246 81.8559 55.745 81.8025 56.0654 81.8025C56.1722 81.8025 56.279 81.8559 56.3324 81.8559L56.813 82.0161C56.9199 82.0161 56.9733 82.0695 57.0267 82.0695C57.4005 82.1229 57.7209 82.1763 58.0413 82.2297C58.1481 82.2297 58.2549 82.2831 58.3083 82.2831L58.7889 82.4433C58.8957 82.4433 58.9491 82.4433 59.0025 82.4967C59.3229 82.5501 59.6434 82.6035 59.9638 82.7103C60.2842 82.8705 60.5512 83.0841 60.8182 83.2443C61.1386 83.3511 61.459 83.4045 61.8328 83.6181L61.9397 83.6715L61.9931 83.7249L62.3135 84.0454C62.3135 84.0454 62.3669 84.0454 62.3669 84.0988L62.4737 84.1522C62.7941 84.4192 63.1145 84.5794 63.3281 84.793C63.5951 85.0066 63.8621 85.2202 64.0757 85.4338C64.3427 85.7008 64.503 85.9678 64.6632 86.2882C64.8768 86.5553 64.9836 86.8223 65.1438 87.1427C65.1972 87.2495 65.9448 88.9049 65.9448 88.9583C66.0516 89.2788 65.9982 89.5992 66.0516 89.9196C66.105 90.24 66.105 90.5604 66.1584 90.9342C66.1584 90.9876 66.1584 91.041 66.1584 91.1478L66.3186 91.6285C66.3186 91.6819 66.3186 91.7887 66.3186 91.8955C66.3186 92.2693 66.2118 92.5897 66.2118 92.9101C66.1584 93.2839 66.1584 93.6043 66.105 93.9247C66.0516 94.2986 66.0516 94.619 65.9448 94.9394C65.8914 95.3132 65.7312 95.5802 65.6244 95.9006C65.5176 96.221 65.571 96.5949 65.4108 96.9153C65.2506 97.2357 64.9836 97.5027 64.8234 97.7697L64.3427 98.6775C64.1825 98.9445 64.0223 99.265 63.8087 99.532C63.6485 99.799 63.4349 100.119 63.2213 100.386C63.0077 100.6 62.7941 100.92 62.5271 101.134C62.2601 101.401 61.9931 101.721 62.0465 102.042C62.0999 102.416 62.4203 102.683 62.7407 102.896ZM48.8027 92.9635C48.8027 93.4975 48.6425 93.7645 48.6425 94.0316C48.6425 94.2986 48.8027 94.5656 48.8027 95.0462C48.8027 95.5802 48.6959 95.8472 48.6959 96.1142C48.6959 96.3812 48.6959 96.6483 48.6959 97.1823C48.6959 97.5561 49.0163 97.8231 49.2833 98.0367C49.6038 98.2503 49.9242 98.4105 50.298 98.3037C50.6718 98.1969 50.9922 98.0901 51.3126 97.9299C51.633 97.8231 51.9535 97.6095 52.2205 97.4493C52.5943 97.2891 52.9147 97.1823 53.1817 96.9687C53.3953 96.8085 54.41 95.5802 54.5168 95.3132C54.5702 94.9928 54.677 94.619 54.677 94.2452C54.677 92.8567 53.5021 92.1091 52.2205 91.9489C51.6864 91.8421 51.099 91.9489 50.3514 91.9489C50.298 91.9489 50.2446 91.9489 50.1912 91.8955L50.0844 91.7887C50.031 91.7353 50.031 91.7353 49.9242 91.7353C49.2833 91.7353 48.8027 92.3227 48.8027 92.9635ZM51.099 114.218C51.7398 114.218 52.3273 114.271 52.8079 114.111C53.3953 113.951 53.8225 113.523 54.2497 113.203C54.677 112.829 55.1042 112.455 55.3178 111.921C55.5848 111.441 55.745 110.853 55.745 110.266C55.745 109.572 55.4246 109.091 55.1576 108.61C54.5168 107.489 53.4487 107.062 52.2739 106.848C52.0603 106.795 51.8467 106.901 51.6864 106.955C51.366 107.062 51.0456 107.062 50.7786 107.168C50.1378 107.382 50.2446 107.596 49.6038 107.809C49.1231 107.97 48.8027 108.29 48.8027 108.771C48.8027 109.305 48.7493 109.572 48.6959 109.839C48.6959 110.106 48.7493 110.373 48.7493 110.907C48.7493 111.441 48.8027 111.708 48.8027 111.975C48.8027 112.242 48.9095 112.509 48.9095 113.043C48.9095 114.004 49.4436 114.271 50.298 114.271L50.7252 114.218C50.832 114.218 50.9388 114.218 51.099 114.218ZM82.7183 81.0548C83.0921 81.0548 83.4125 81.1082 83.7329 81.1616C83.8397 81.1616 83.9465 81.1616 83.9999 81.1616L84.4806 81.3218H84.9612L85.4418 81.3752C85.5486 81.3752 85.602 81.3752 85.6554 81.3752C86.0292 81.3752 86.3496 81.4821 86.6701 81.5355C86.7769 81.5355 86.8837 81.5355 86.9371 81.5355L87.4177 81.4821C87.5245 81.4821 87.5779 81.4821 87.6313 81.4821C87.9517 81.5355 88.2721 81.6957 88.5925 81.8025C88.9129 81.8559 89.2868 81.8559 89.5538 81.9627C89.8742 82.0695 90.1412 82.3365 90.4616 82.4967C90.7286 82.6035 91.049 82.7103 91.3694 82.8171C91.6365 82.9239 92.0103 82.9239 92.3307 83.0841C92.5977 83.2443 92.8113 83.5647 93.0783 83.7783C93.3453 83.9385 93.6123 84.0988 93.8793 84.259C94.1464 84.4726 94.4134 84.6862 94.627 84.8998C94.894 85.1134 95.161 85.327 95.3746 85.5406C95.6416 85.7542 95.8018 86.0212 96.0688 86.3416L96.1222 86.4485C96.1756 86.4485 96.1756 86.5019 96.1756 86.5019L96.4426 86.8757L96.496 86.9291L96.7097 87.2495C96.7631 87.2495 96.7631 87.3029 96.7631 87.3029L97.0301 87.6233L97.0835 87.6767L97.1369 87.7835C97.3505 88.1573 97.4573 88.4777 97.6175 88.7447C97.7243 89.0652 97.8311 89.3856 97.9913 89.6526C98.0447 89.706 98.0447 89.7594 98.0447 89.8662L98.2049 90.3468C98.2049 90.4002 98.2583 90.507 98.2583 90.6138C98.3651 90.8808 98.6321 91.1478 98.7389 91.4683C98.8457 91.7887 98.7389 92.1625 98.7923 92.4829C98.8991 92.8033 99.1128 93.0703 99.1128 93.3907C99.1662 93.7111 99.1662 94.085 99.1662 94.4054C99.2196 94.7258 99.1662 95.0462 99.1662 95.3666C99.1662 95.42 99.1662 95.5268 99.1662 95.6336L99.2196 96.1142V97.3425C99.2196 97.6629 99.1662 97.9833 99.1128 98.3037C99.1128 98.6775 99.0593 98.998 99.0059 99.3184C98.9525 99.6388 98.8991 99.9592 98.8457 100.28C98.8457 100.333 98.7923 100.386 98.7923 100.493L98.6855 100.974C98.6855 101.027 98.6321 101.134 98.6321 101.241C98.6321 101.294 98.5787 101.348 98.5787 101.454L98.4185 101.935C98.4185 101.988 98.4185 102.095 98.3651 102.255L98.3117 102.362V102.416L98.2049 102.896C98.2049 102.95 98.2049 103.057 98.1515 103.11C97.9913 103.43 97.7777 103.697 97.6175 103.964C97.4573 104.285 97.4573 104.659 97.2971 104.926C97.1369 105.246 96.8699 105.46 96.7097 105.727C96.496 105.994 96.2824 106.261 96.0688 106.474C95.9086 106.634 94.894 107.809 94.7338 107.916C94.4668 108.13 94.1464 108.29 93.8793 108.504L93.7725 108.557L93.7191 108.61L93.3987 108.984C93.3987 108.984 93.3453 108.984 93.3453 109.038L93.2385 109.091C92.9181 109.305 92.5443 109.358 92.2239 109.518C91.9569 109.625 91.6899 109.839 91.3694 109.999C91.2092 110.106 89.714 110.586 89.5538 110.64C89.2334 110.746 88.9129 110.853 88.5925 110.96C88.5391 110.96 88.4857 111.013 88.3789 111.013L87.8983 111.12C87.8449 111.12 87.7381 111.174 87.6313 111.174C87.3109 111.227 86.9905 111.28 86.6701 111.334C86.6167 111.334 86.5633 111.387 86.4564 111.387L85.9758 111.494C85.9224 111.494 85.8156 111.547 85.7088 111.547C85.3884 111.601 85.0146 111.494 84.6942 111.494C84.6408 111.494 84.5874 111.494 84.4806 111.494L83.9999 111.547C83.9465 111.547 83.8397 111.547 83.7329 111.547C83.3057 111.601 82.9319 111.654 82.5047 111.654L82.0241 111.494H81.5434L81.0628 111.547C81.0094 111.547 80.9026 111.547 80.7958 111.547C80.422 111.494 80.1016 111.387 79.7812 111.387C79.7278 111.387 79.6744 111.334 79.5676 111.334H79.087C79.0336 111.334 78.9267 111.28 78.8199 111.28H77.8053C77.8053 111.28 77.7519 111.28 77.7519 111.227H77.6451C77.6451 111.174 77.5917 111.174 77.5917 111.174L77.1111 110.96C77.0577 110.907 77.0043 110.853 76.8975 110.853C76.5771 110.8 76.2566 110.693 75.9896 110.586C75.9362 110.533 75.8294 110.533 75.7226 110.533L75.242 110.479H75.1886L75.0284 110.426C75.0284 110.426 75.0284 110.426 74.9216 110.373H74.8148C74.8148 110.319 74.7614 110.319 74.7614 110.319L74.2808 110.159C74.2274 110.106 74.174 110.052 74.0672 110.052C73.8001 109.892 73.5865 109.572 73.2661 109.465C72.9991 109.305 72.6787 109.198 72.4117 108.984C72.1447 108.824 71.8777 108.664 71.5573 108.397L71.4504 108.343C71.4504 108.29 71.397 108.29 71.397 108.29L70.9698 108.076L70.9164 108.023L70.8096 107.97C70.5426 107.702 70.3824 107.382 70.1688 107.115C69.9018 106.901 69.6882 106.688 69.528 106.421C69.4746 106.367 69.4212 106.314 69.3678 106.261L68.9405 105.887C68.8871 105.833 68.8337 105.78 68.7803 105.727L68.2997 104.872C68.0861 104.605 67.9259 104.338 67.7657 104.018C67.6589 103.751 67.6055 103.377 67.4453 103.11C67.4453 103.003 67.3919 102.95 67.3385 102.896L67.1783 102.416C67.1783 102.416 67.1783 102.362 67.1249 102.362V102.255C66.9647 101.882 66.9113 101.561 66.8579 101.241C66.7511 100.92 66.6977 100.6 66.6443 100.28C66.6443 100.173 66.5909 100.066 66.5909 100.013L66.484 99.532C66.484 99.4252 66.4306 99.3718 66.4306 99.3184C66.4306 98.998 66.5375 98.6241 66.484 98.3037C66.4306 97.9833 66.217 97.6629 66.217 97.3425C66.1636 97.0221 66.1636 96.7017 66.1636 96.3812C66.1636 96.0608 66.2704 95.687 66.3238 95.3666C66.3238 95.0462 66.1636 94.7258 66.217 94.4054C66.217 94.2986 66.217 94.2452 66.217 94.1384L66.2704 93.6577C66.2704 93.5509 66.2704 93.4441 66.2704 93.3907C66.3238 93.0703 66.5375 92.7499 66.5909 92.4829C66.6977 92.1091 66.7511 91.7887 66.8045 91.5217C66.8579 91.4149 66.8579 91.3614 66.8579 91.2546L66.9647 90.774C66.9647 90.6672 67.0181 90.5604 67.0181 90.507C67.1249 90.1866 67.1783 89.8662 67.3385 89.5992C67.4453 89.2788 67.8191 89.0652 67.9259 88.7981C67.9793 88.6913 67.9793 88.5845 68.0327 88.5311L68.1929 88.0505C68.2463 87.9437 68.2463 87.8903 68.3531 87.7835V87.6767C68.4065 87.6767 68.4065 87.6233 68.4065 87.6233L68.6201 87.1961C68.6201 87.1961 68.6201 87.1427 68.6735 87.1427V87.0359C68.7269 87.0359 68.7269 86.9825 68.7269 86.9825L69.4212 86.2882L69.4746 86.2348L69.528 86.128C69.5814 86.128 69.5814 86.0746 69.5814 86.0746L69.9552 85.7542L70.0086 85.7008L70.062 85.594C70.329 85.327 70.4892 85.0066 70.8096 84.7396L70.9164 84.6862C70.9164 84.6328 70.9698 84.6328 70.9698 84.6328L71.397 84.4192L71.4504 84.3658L71.5573 84.3124C71.8777 84.0988 72.1447 83.9385 72.4117 83.7249C72.6787 83.5647 72.9457 83.3511 73.2127 83.2443C73.5331 83.0841 73.8001 82.8705 74.1206 82.7637C74.3876 82.6569 74.708 82.4967 75.0284 82.3899C75.1352 82.3365 75.1886 82.3365 75.242 82.2831L75.7226 82.1229C75.776 82.0695 75.8828 82.0161 75.9362 82.0161C76.2032 81.9093 76.5771 81.9093 76.8975 81.8025C77.2179 81.7491 77.5383 81.6957 77.8587 81.6423C78.1791 81.5355 78.4995 81.5355 78.8199 81.4821C79.1404 81.4286 79.4608 81.3752 79.7812 81.3218C80.1016 81.3218 80.4754 81.3752 80.7958 81.3218C80.9026 81.3218 81.0094 81.2684 81.0628 81.2684L81.5434 81.1616C81.6503 81.1616 81.7037 81.1082 81.7571 81.1082C82.0775 81.0548 82.3979 81.0548 82.7183 81.0548ZM82.7183 101.027C83.0921 101.027 83.4125 101.187 83.7329 101.134C84.0534 101.081 84.3738 100.92 84.6408 100.814C84.9612 100.707 85.335 100.707 85.602 100.6C85.9224 100.44 86.0826 100.119 86.2962 99.9058C86.6167 99.6388 87.2575 98.6775 87.3643 98.3037C87.4177 98.0901 87.4711 96.7017 87.4711 96.3812C87.4711 96.0074 87.6313 95.687 87.5779 95.42C87.5245 95.0462 87.4177 94.7258 87.3109 94.4588C87.0973 93.8179 86.7235 93.3373 86.2428 92.9101C86.0292 92.6431 85.7622 92.5363 85.4952 92.3227C85.2282 92.1625 85.0146 91.8421 84.6942 91.7353C84.3738 91.6819 84.0534 91.6819 83.7329 91.6819C83.4125 91.6819 83.0921 91.7353 82.7183 91.7353C82.6649 91.7353 82.6115 91.7353 82.5047 91.7353L82.0241 91.6285C81.9707 91.6285 81.8639 91.6285 81.7571 91.6285C81.4366 91.6819 81.1162 91.7353 80.7958 91.8421C80.4754 91.9489 80.2618 92.1625 79.9414 92.3227C79.6744 92.4829 79.354 92.5363 79.1404 92.8033C78.8733 93.0169 78.6597 93.2839 78.4995 93.5509C78.3927 93.8179 78.2325 94.1384 78.1257 94.4588C78.0189 94.7258 78.0189 95.0462 77.9655 95.42C77.9121 95.687 77.8587 96.0074 77.8587 96.3812C77.8587 96.7017 77.9655 97.0221 78.0189 97.3425C78.0189 97.3959 78.0723 97.4493 78.0723 97.5561V98.0367C78.0723 98.0901 78.1257 98.1969 78.1257 98.3037C78.2859 98.7309 78.8199 99.6922 79.1404 99.9592C79.354 100.173 79.621 100.333 79.9414 100.493C80.2084 100.653 80.4754 100.867 80.7958 100.974C81.0628 101.081 81.4366 100.974 81.7571 100.974C82.0775 101.027 82.3979 101.027 82.7183 101.027ZM69.9552 124.471C69.3144 124.471 68.8871 123.883 68.8871 123.243C68.8871 122.708 68.8871 122.495 68.8871 122.228C68.8871 122.014 68.7803 121.747 68.7803 121.267C68.7803 120.733 68.8337 120.519 68.8337 120.252C68.7803 120.038 68.6735 119.771 68.6735 119.291C68.6735 118.757 68.7269 118.543 68.7269 118.276C68.7803 118.063 68.8337 117.796 68.8337 117.315C68.8337 116.781 68.7269 116.567 68.7269 116.3C68.7269 115.392 68.7269 114.271 69.9552 114.271H71.9311C72.4117 114.271 72.6787 114.111 72.9457 114.111C73.1593 114.057 73.4263 114.164 73.9069 114.164C74.3876 114.164 74.6546 114.164 74.8682 114.164C75.1352 114.164 75.4022 114.218 75.8828 114.218H77.8587C78.3393 114.218 78.5529 114.057 78.8199 114.057C79.0336 114.057 79.3006 114.004 79.7812 114.004C80.3152 114.004 80.5288 114.111 80.7958 114.111C81.0094 114.111 81.2764 114.111 81.7571 114.111C82.2377 114.111 82.5047 114.218 82.7183 114.218C82.9853 114.218 83.2523 114.111 83.7329 114.111C84.2136 114.111 84.4806 114.218 84.6942 114.218C84.9612 114.218 85.1748 114.111 85.7088 114.111C86.1894 114.111 86.4564 114.057 86.6701 114.057C86.9371 114.111 87.1507 114.271 87.6313 114.271C88.1653 114.271 88.3789 114.271 88.6459 114.271C89.2868 114.271 89.981 114.271 90.6218 114.271C90.8354 114.271 91.1024 114.164 91.5831 114.164C92.0637 114.164 92.3307 114.218 92.5443 114.271C92.8113 114.271 93.0783 114.218 93.5589 114.218C94.0395 114.218 94.2532 114.057 94.5202 114.057C95.428 114.057 96.5494 114.164 96.5494 115.339C96.5494 115.82 96.6563 116.087 96.7097 116.3C96.7097 116.567 96.6563 116.781 96.6563 117.315C96.6563 117.796 96.6029 118.063 96.6029 118.276C96.6029 118.543 96.7097 118.757 96.7097 119.291C96.7097 119.771 96.7631 120.038 96.7631 120.252C96.7631 120.519 96.7631 120.733 96.7631 121.267C96.7631 121.747 96.6563 122.014 96.6563 122.228C96.6563 122.495 96.7631 122.708 96.7631 123.243C96.7631 124.364 95.3212 124.364 94.5202 124.364C93.8793 124.364 93.1851 124.364 92.5443 124.364C92.3307 124.364 92.0637 124.364 91.5831 124.364C91.1024 124.364 90.8354 124.471 90.6218 124.471C90.3548 124.471 90.0878 124.311 89.6072 124.311C89.1266 124.311 88.8595 124.417 88.6459 124.417C88.3789 124.417 88.1653 124.364 87.6313 124.364C87.1507 124.364 86.9371 124.364 86.6701 124.364C86.403 124.364 86.1894 124.311 85.7088 124.311C85.1748 124.311 84.9612 124.471 84.6942 124.471C84.4806 124.471 84.2136 124.311 83.7329 124.311C83.2523 124.311 82.9853 124.471 82.7183 124.417C82.5047 124.417 82.2377 124.257 81.7571 124.257C81.2764 124.257 81.0094 124.364 80.7958 124.417C80.5288 124.417 80.3152 124.524 79.7812 124.524C79.3006 124.524 79.087 124.417 78.8199 124.417C78.5529 124.364 78.3393 124.417 77.8587 124.417H74.8682C74.6546 124.364 74.3876 124.471 73.9069 124.471C73.4263 124.471 73.1593 124.311 72.9457 124.311C72.6787 124.311 72.4117 124.417 71.9311 124.417C71.4504 124.417 71.2368 124.471 70.9698 124.471C70.7028 124.471 70.4892 124.471 69.9552 124.471ZM138.014 81.6423C138.655 81.6423 139.242 82.2297 139.242 82.8171C139.296 83.2977 139.296 83.5647 139.296 83.7783C139.296 84.0454 139.296 84.259 139.296 84.7396C139.296 85.2202 139.189 85.4872 139.189 85.7542C139.189 85.9678 139.296 86.1814 139.296 86.6621C139.349 87.1427 139.242 87.4097 139.242 87.6233C139.242 87.8903 139.402 88.1039 139.402 88.5845C139.456 89.0652 139.296 89.3322 139.296 89.5992C139.349 89.8128 139.402 90.0264 139.456 90.507C139.456 90.9876 139.563 91.2546 139.616 91.4683C139.616 91.7353 139.616 91.9489 139.616 92.4295C139.669 92.9101 139.669 93.1771 139.669 93.3907C139.723 93.6577 139.616 93.8713 139.669 94.352C139.669 94.8326 139.723 95.0996 139.723 95.3132C139.723 95.5802 139.616 95.7938 139.616 96.2744C139.669 96.7551 139.776 97.0221 139.776 97.2357C139.776 97.5027 139.669 97.7163 139.669 98.1969C139.723 98.6775 139.723 98.9445 139.723 99.2116C139.776 99.4252 139.776 99.6388 139.776 100.119C139.83 100.6 139.883 100.867 139.883 101.081C139.83 101.348 139.883 101.561 139.936 102.042C139.936 102.522 139.936 102.79 139.99 103.003C139.99 103.27 139.883 103.484 139.883 103.964C139.936 104.445 139.936 104.712 139.99 104.926C139.99 105.193 139.99 105.406 140.043 105.887C140.043 106.367 140.15 106.634 140.15 106.848C140.15 107.115 140.097 107.329 140.15 107.809C140.15 108.29 140.15 108.557 140.15 108.771C140.15 109.038 140.257 109.251 140.257 109.732C140.31 110.212 140.257 110.479 140.257 110.693C140.257 110.96 140.31 111.174 140.364 111.654V115.499C140.417 115.98 140.364 116.247 140.417 116.46C140.417 116.727 140.524 116.941 140.524 117.422C140.577 117.902 140.577 118.169 140.577 118.383V120.305C140.631 120.572 140.631 120.786 140.631 121.267C140.631 121.747 140.684 122.014 140.684 122.228C140.684 122.495 140.737 122.708 140.791 123.189C140.791 123.883 140.203 124.417 139.509 124.417C138.601 124.417 138.601 124.417 137.693 124.417C136.786 124.417 136.786 124.524 135.878 124.524C134.97 124.524 134.97 124.417 134.062 124.417C133.849 124.417 133.688 124.417 133.528 124.417L132.781 124.471H131.712L130.965 124.417C130.11 124.417 129.363 124.364 129.256 123.296C129.256 122.388 129.203 122.388 129.149 121.48C129.149 120.572 129.203 120.572 129.149 119.665C129.149 118.757 129.042 118.757 129.042 117.849C128.989 116.941 129.096 116.941 129.096 116.033C129.042 115.072 128.936 115.125 128.882 114.218C128.829 113.256 128.882 113.256 128.829 112.348C128.829 111.761 128.455 111.28 127.974 111.174C127.494 111.067 126.906 111.334 126.639 111.868C126.479 112.188 126.426 112.562 126.265 112.829C126.105 113.15 125.838 113.417 125.731 113.737C125.571 114.057 125.464 114.378 125.411 114.698L125.091 115.713C125.091 115.766 125.037 115.873 125.037 115.98L124.984 116.46C124.984 116.567 124.984 116.621 124.93 116.727C124.824 117.048 124.557 117.315 124.503 117.689C124.396 118.009 124.396 118.33 124.343 118.703C124.29 119.024 124.236 119.344 124.183 119.718C124.129 120.305 123.595 120.626 123.008 120.626C122.474 120.626 122.207 120.679 121.993 120.733C121.726 120.733 121.459 120.626 120.925 120.626C120.445 120.626 120.178 120.786 119.911 120.786C119.644 120.839 119.377 120.786 118.896 120.786C118.362 120.786 118.095 120.626 117.828 120.626C117.614 120.626 117.347 120.572 116.813 120.572C116.226 120.572 115.692 120.305 115.638 119.718C115.585 119.504 115.318 117.742 115.318 117.689C115.265 117.315 114.998 117.048 114.944 116.727C114.837 116.354 114.784 116.033 114.677 115.713C114.57 115.392 114.624 115.019 114.464 114.698C114.464 114.591 114.41 114.485 114.357 114.431L114.197 113.951C114.143 113.844 114.143 113.79 114.09 113.737C114.036 113.63 114.036 113.523 113.983 113.47L113.769 112.989C113.716 112.883 113.716 112.829 113.663 112.776L113.129 111.921C112.862 111.334 112.381 111.174 111.9 111.28C111.42 111.387 110.992 111.761 110.939 112.348C110.939 112.562 110.939 112.722 110.939 112.883L110.992 113.684C110.992 113.844 110.992 114.004 110.992 114.218C110.992 114.431 110.939 114.591 110.939 114.752L110.832 115.499C110.832 115.606 110.779 115.713 110.779 115.873V116.193C110.779 116.3 110.725 116.46 110.725 116.567L110.672 117.315C110.672 118.063 110.672 118.917 110.619 119.665C110.619 120.572 110.565 120.572 110.512 121.48C110.512 122.388 110.725 122.388 110.672 123.296C110.672 123.937 110.031 124.471 109.39 124.471H107.041L106.293 124.417H105.225L104.477 124.364H103.409L102.662 124.311C102.501 124.311 102.341 124.311 102.128 124.311C101.22 124.311 101.22 124.524 100.312 124.524C99.6178 124.524 98.977 123.883 98.977 123.189C99.0304 122.708 99.1906 122.495 99.244 122.228C99.244 122.014 99.244 121.747 99.244 121.267C99.2974 120.786 99.2974 120.572 99.2974 120.305C99.2974 120.092 99.2974 119.825 99.3508 119.344C99.3508 118.864 99.1906 118.65 99.1906 118.383C99.244 118.169 99.3508 117.902 99.4042 117.422C99.4042 116.941 99.2974 116.727 99.3508 116.46C99.3508 116.247 99.3508 115.98 99.3508 115.499C99.4042 115.019 99.4042 114.805 99.4042 114.538C99.511 114.111 99.6178 113.096 99.6178 112.615C99.6178 112.402 99.4576 112.135 99.4576 111.654C99.511 111.174 99.511 110.96 99.511 110.693C99.5644 110.479 99.5644 110.212 99.5644 109.732C99.6178 109.251 99.6712 109.038 99.6178 108.771C99.6178 108.557 99.5644 108.29 99.6178 107.809C99.6178 107.329 99.778 107.115 99.8314 106.848C99.8314 106.634 99.8314 106.367 99.8848 105.887C99.8848 105.406 99.8314 105.193 99.8848 104.926C99.8848 104.712 99.9382 104.445 99.9382 103.964C99.9916 103.484 99.9916 103.27 100.045 103.003C100.045 102.79 99.8314 102.522 99.8848 102.042C99.8848 101.561 100.045 101.348 100.045 101.081C100.045 100.867 99.9382 100.6 99.9382 100.119C99.9382 99.6388 99.9382 99.4252 99.9382 99.1582C99.9382 98.9445 99.9916 98.6775 99.9916 98.1969C100.045 97.7163 100.205 97.5027 100.205 97.2357C100.205 97.0221 100.045 96.7551 100.045 96.2744C100.045 95.7938 100.045 95.5802 100.045 95.3132C100.045 95.0996 100.098 94.8326 100.098 94.352C100.152 93.8713 100.152 93.6577 100.152 93.3907C100.205 93.2305 100.419 91.5751 100.419 91.4683C100.419 91.2546 100.419 90.9876 100.419 90.507C100.472 90.0264 100.365 89.8128 100.365 89.5458C100.365 89.3322 100.419 89.0652 100.472 88.5845C100.472 88.1039 100.365 87.8903 100.365 87.6233C100.419 87.4097 100.365 87.1427 100.419 86.6621C100.419 86.1814 100.526 85.9678 100.579 85.7008C100.579 85.4872 100.472 85.2202 100.472 84.7396C100.526 84.259 100.632 84.0454 100.632 83.7783C100.632 83.5647 100.739 83.2977 100.739 82.8171C100.739 82.2297 101.166 81.8025 101.807 81.8025C102.074 81.8025 102.234 81.8025 102.395 81.8025L103.142 81.7491H104.317L105.065 81.6957H106.24L106.987 81.6423C107.147 81.6423 107.361 81.6423 107.575 81.6423C108.536 81.6423 108.536 81.7491 109.444 81.7491C109.711 81.7491 109.871 81.7491 110.031 81.7491L110.779 81.8025C110.939 81.8025 111.153 81.8025 111.366 81.8025C111.847 81.8025 112.274 81.9627 112.488 82.3365C112.755 82.9239 113.022 83.4579 113.342 84.0454C113.609 84.5794 113.823 85.1668 114.09 85.7542C114.357 86.2882 114.624 86.8757 114.891 87.4631C114.944 87.5699 114.998 87.7301 115.051 87.8903L115.585 89.172C115.799 89.7594 116.066 90.3468 116.333 90.9342L116.493 91.3614L116.706 92.2693L116.867 92.6965C117.08 93.2839 117.401 93.8713 117.561 94.4588C117.775 95.0462 118.095 95.5802 118.255 96.221C118.469 96.8085 118.576 97.4493 118.736 98.0367C118.896 98.5707 119.43 98.998 119.911 98.998C120.391 98.998 120.925 98.5707 121.139 98.0367C121.299 97.4493 121.299 96.7551 121.513 96.1676C121.673 95.5802 121.886 94.9928 122.1 94.4054L122.688 93.1237L123.008 92.2693L123.275 91.308L123.595 90.4536L124.183 89.172C124.45 88.5845 124.663 87.9971 124.93 87.4631C125.197 86.8757 125.464 86.2882 125.731 85.7542C125.731 85.7008 125.785 85.7008 125.785 85.6474L125.892 85.4338C125.892 85.3804 125.945 85.3804 125.945 85.327L126.372 84.4726C126.372 84.4192 126.426 84.4192 126.426 84.3658L126.532 84.1522C126.532 84.0988 126.586 84.0988 126.586 84.0454C126.853 83.5113 127.173 82.9773 127.44 82.3899C127.654 82.0161 127.974 81.8559 128.455 81.8559C129.416 81.8559 129.416 81.8025 130.324 81.8025C131.285 81.8025 131.285 81.6423 132.246 81.6423C133.208 81.6423 133.208 81.7491 134.169 81.7491C135.13 81.7491 135.13 81.7491 136.091 81.7491C137.053 81.7491 137.053 81.6423 138.014 81.6423ZM167.721 102.95C169.537 103.858 170.445 104.926 171.406 106.795C171.726 107.329 172.047 107.863 172.207 108.45C172.421 108.984 172.421 109.625 172.527 110.266C172.581 110.853 172.741 111.441 172.741 112.081C172.741 112.135 172.741 112.188 172.741 112.295L172.634 112.776C172.634 112.829 172.634 112.936 172.634 113.043C172.581 113.417 172.581 113.737 172.527 114.057C172.527 114.111 172.474 114.164 172.474 114.271L172.314 114.752C172.314 114.805 172.26 114.912 172.26 115.019C172.154 115.499 171.993 116.46 171.726 116.888C171.62 117.208 171.459 117.528 171.246 117.849L171.192 117.956L171.139 118.009L170.872 118.383C170.872 118.383 170.872 118.436 170.819 118.436L170.765 118.543C170.498 118.864 170.338 119.184 170.124 119.398C169.911 119.665 169.644 119.825 169.377 120.038C169.163 120.252 168.042 121.106 167.775 121.213C167.508 121.373 167.294 121.587 166.974 121.747C166.707 121.907 166.44 122.121 166.119 122.281C165.852 122.388 165.532 122.548 165.211 122.655C164.944 122.815 164.677 123.029 164.357 123.189C164.304 123.189 164.25 123.243 164.143 123.243L163.663 123.296C163.609 123.296 163.502 123.296 163.396 123.349C163.075 123.456 162.755 123.563 162.434 123.616C162.114 123.723 161.794 123.777 161.473 123.83C161.42 123.83 161.366 123.883 161.26 123.883L160.779 123.99C160.726 123.99 160.619 123.99 160.512 124.044C160.459 124.044 160.352 124.097 160.245 124.097H159.764H159.711L159.551 124.15C159.444 124.15 159.391 124.204 159.284 124.204L158.803 124.364C158.429 124.364 157.949 124.417 157.575 124.471C157.201 124.471 156.881 124.364 156.56 124.364C156.24 124.417 155.919 124.364 155.546 124.364C155.065 124.364 154.798 124.524 154.531 124.524C154.317 124.471 154.05 124.471 153.57 124.471C153.036 124.471 152.769 124.311 152.555 124.311C152.288 124.311 152.021 124.417 151.54 124.417C151.006 124.417 150.793 124.364 150.526 124.364C150.259 124.417 149.992 124.417 149.511 124.417C148.977 124.417 148.763 124.471 148.496 124.524C148.229 124.524 147.962 124.417 147.482 124.417C147.001 124.417 146.734 124.524 146.467 124.471C146.2 124.471 145.987 124.417 145.453 124.417H143.423C142.836 124.417 142.248 123.883 142.248 123.296C142.248 122.815 142.195 122.548 142.248 122.335C142.248 121.854 142.355 120.839 142.462 120.412C142.462 120.145 142.462 119.932 142.462 119.451C142.462 118.97 142.462 118.703 142.409 118.49C142.409 118.223 142.409 118.009 142.409 117.475C142.409 116.994 142.302 116.781 142.302 116.514C142.302 116.3 142.355 116.033 142.355 115.553C142.355 115.072 142.195 114.858 142.195 114.591C142.195 114.378 142.409 114.111 142.409 113.63C142.409 113.15 142.195 112.936 142.195 112.669C142.195 112.455 142.355 112.188 142.355 111.708C142.355 111.227 142.355 111.013 142.355 110.746C142.409 110.533 142.302 110.266 142.302 109.785C142.302 109.305 142.462 109.038 142.409 108.824C142.409 108.557 142.248 108.343 142.248 107.863C142.248 107.382 142.355 107.115 142.355 106.901C142.355 106.634 142.302 106.421 142.302 105.94C142.302 105.299 142.302 104.659 142.302 104.018C142.302 103.537 142.355 103.27 142.355 103.057C142.355 102.79 142.248 102.576 142.248 102.095C142.248 101.615 142.409 101.348 142.409 101.134C142.409 100.867 142.248 100.653 142.248 100.173C142.248 99.6922 142.355 99.4252 142.355 99.2116C142.355 98.9445 142.302 98.7309 142.302 98.1969C142.302 97.5561 142.302 96.9153 142.302 96.2744C142.302 95.7938 142.409 95.5802 142.409 95.3132C142.409 95.0996 142.462 94.8326 142.462 94.352C142.462 93.8713 142.462 93.6577 142.409 93.3907C142.409 93.1771 142.248 92.9101 142.248 92.4295C142.248 91.9489 142.355 91.7353 142.355 91.4683C142.355 91.2546 142.248 90.9876 142.248 90.507C142.248 90.0264 142.248 89.8128 142.248 89.5458C142.248 89.2788 142.355 89.0652 142.355 88.5845V86.6621C142.355 86.1814 142.302 85.9144 142.302 85.7008C142.302 85.06 142.302 84.4192 142.302 83.7783C142.355 83.5113 142.355 83.2977 142.355 82.8171C142.355 82.1763 142.836 81.6423 143.423 81.6423C143.957 81.6423 144.171 81.7491 144.438 81.7491C144.652 81.8025 144.919 81.6957 145.399 81.6957C145.88 81.6957 146.147 81.7491 146.36 81.7491C146.627 81.7491 146.894 81.7491 147.375 81.7491C147.856 81.7491 148.123 81.5889 148.336 81.5889C148.603 81.5889 148.817 81.6957 149.351 81.6957C149.832 81.6957 150.045 81.6957 150.312 81.6423C150.526 81.6423 150.793 81.6957 151.273 81.6957C151.754 81.6957 152.021 81.7491 152.288 81.7491C152.502 81.7491 152.769 81.7491 153.249 81.7491C153.73 81.7491 153.997 81.6957 154.211 81.6957C154.478 81.6957 154.745 81.6957 155.225 81.6957C155.706 81.6957 155.919 81.6423 156.186 81.6423C156.453 81.6423 156.667 81.5355 157.148 81.5355C157.521 81.5355 157.842 81.6423 158.162 81.6423C158.269 81.6423 158.322 81.6423 158.429 81.6423L158.91 81.7491H160.138C160.512 81.8025 160.832 81.9627 161.153 81.9627C161.26 81.9627 161.366 82.0161 161.42 82.0161H161.9C162.007 82.0161 162.061 82.0695 162.114 82.0695C162.701 82.1763 163.502 82.3899 164.09 82.6035L164.25 82.6569H164.304L164.784 82.7103C164.891 82.7103 164.998 82.7103 165.051 82.7637C165.372 82.8705 165.639 83.0841 165.959 83.2443C166.226 83.3511 166.546 83.5113 166.813 83.6715C167.134 83.8317 167.347 84.0988 167.614 84.259C167.881 84.4726 168.255 84.526 168.522 84.793L168.576 84.8998C168.629 84.8998 168.629 84.9532 168.629 84.9532L169.003 85.327L169.056 85.3804L169.11 85.4872C169.377 85.7542 169.697 85.9144 169.911 86.1814C170.071 86.4485 170.178 86.7689 170.338 87.0893C170.498 87.3563 170.658 87.6767 170.765 87.9971C170.925 88.3175 170.979 88.6379 171.086 88.9583C171.139 89.2788 171.086 89.5992 171.139 89.973C171.192 90.2934 171.406 90.6138 171.406 90.9342C171.406 91.2546 171.246 91.5751 171.246 91.9489C171.246 92.0023 171.246 92.1091 171.246 92.2159L171.353 92.6965V93.2305L171.299 93.7111C171.299 93.8179 171.299 93.8713 171.299 93.9782C171.246 94.352 171.139 94.6724 171.086 94.9928C171.086 95.0462 171.032 95.0996 170.979 95.2064L170.819 95.687C170.765 95.7404 170.765 95.8472 170.712 95.954C170.712 96.0074 170.658 96.1142 170.658 96.221L170.498 96.7017C170.498 96.8085 170.498 96.8619 170.391 97.0221V97.1289C170.338 97.1289 170.338 97.1823 170.338 97.1823L170.018 97.6095C169.964 97.6629 169.964 97.7163 169.911 97.8231C169.751 98.1435 169.697 98.5173 169.537 98.7843C169.323 99.1048 169.003 99.265 168.736 99.5854L168.682 99.6922L168.629 99.7456L168.415 100.226C168.415 100.226 168.415 100.28 168.362 100.28L168.309 100.386C168.042 100.653 167.721 100.867 167.508 101.134C167.241 101.348 167.08 101.721 167.134 102.095C167.134 102.416 167.401 102.736 167.721 102.95ZM153.837 92.9635V96.1142C153.837 96.3812 153.73 96.6483 153.73 97.1823C153.73 97.5561 154.05 97.8231 154.317 98.0367C154.638 98.1969 155.012 98.4105 155.385 98.3037L155.332 98.1969C155.973 97.9299 156.614 97.6629 157.254 97.3959C157.628 97.1823 157.949 97.1289 158.216 96.9153C158.536 96.7017 158.75 96.4346 158.963 96.1676C159.23 95.9006 159.497 95.687 159.604 95.3666C159.764 95.0462 159.658 94.6724 159.658 94.2986C159.658 92.4295 159.017 92.2693 157.308 92.0023C156.56 91.8421 155.706 91.7887 154.958 91.7887C154.371 91.7887 153.837 92.3227 153.837 92.9635ZM156.186 114.324C156.827 114.324 157.361 114.164 157.842 114.004C158.429 113.844 158.963 113.63 159.391 113.256C160.565 112.348 160.726 111.708 160.726 110.319C160.726 109.625 160.726 108.984 160.459 108.557C159.978 107.756 158.216 107.222 157.308 107.115C157.094 107.062 156.987 107.008 156.827 107.062C156.774 107.062 156.72 107.115 156.614 107.115L156.133 107.222C156.08 107.222 155.973 107.222 155.866 107.275C155.706 107.329 155.599 107.382 155.492 107.435L155.012 107.596C154.905 107.649 154.798 107.702 154.638 107.756C154.211 107.863 153.783 108.29 153.783 108.771C153.783 109.305 153.89 109.572 153.89 109.892C153.943 110.159 153.73 110.426 153.73 110.96C153.73 111.494 153.89 111.761 153.89 112.028C153.89 112.295 153.837 112.615 153.837 113.15C153.837 113.737 154.371 114.324 154.958 114.324C155.599 114.324 155.599 114.324 156.186 114.324ZM172.594 112.242V110.266C172.594 109.999 172.701 109.732 172.701 109.251C172.701 108.771 172.647 108.504 172.701 108.237C172.701 108.023 172.594 107.756 172.594 107.275C172.594 106.741 172.594 106.528 172.594 106.261C172.594 105.994 172.701 105.78 172.701 105.246C172.701 104.765 172.594 104.498 172.594 104.285C172.541 104.018 172.594 103.751 172.594 103.27V101.294C172.594 100.76 172.541 100.547 172.594 100.28V98.998L172.647 98.5173V98.0367L172.701 97.5561C172.701 97.4493 172.701 97.3959 172.701 97.3425C172.754 96.9687 172.808 96.6483 172.861 96.3278C172.861 96.221 172.861 96.0608 172.861 95.954L172.808 95.7404C172.808 95.6336 172.808 95.4734 172.808 95.3666C172.808 95.2598 172.861 95.153 172.861 95.0996L173.021 94.619C173.021 94.5122 173.075 94.4588 173.075 94.4054C173.075 94.2986 173.075 94.2452 173.075 94.1384L173.128 93.6577C173.128 93.5509 173.128 93.4441 173.128 93.3907C173.181 93.0703 173.395 92.8033 173.502 92.4829C173.609 92.1625 173.715 91.8421 173.822 91.5751C173.929 91.2546 174.089 90.9876 174.249 90.6672L174.623 89.8128C174.783 89.4924 174.89 89.172 175.05 88.9049C175.211 88.6379 175.371 88.3175 175.584 88.0505C176.118 87.1961 176.706 86.5019 177.507 85.861C177.721 85.6474 177.934 85.3804 178.201 85.1668C178.468 84.9532 178.735 84.793 179.056 84.6328C179.323 84.4726 179.536 84.259 179.857 84.0988C180.124 83.9385 180.444 83.8317 180.764 83.7249C181.031 83.5647 181.352 83.4045 181.672 83.2977C181.939 83.1909 182.26 83.1375 182.58 83.0307C182.687 82.9773 182.794 82.9773 182.847 82.9773L183.328 82.8171C183.435 82.8171 183.488 82.7637 183.541 82.7637C183.862 82.7103 184.129 82.6035 184.449 82.4967C184.556 82.4967 184.663 82.4433 184.716 82.4433L185.197 82.2831C185.304 82.2831 185.357 82.2297 185.41 82.2297L187.333 81.9093C187.653 81.8559 188.027 81.9093 188.348 81.9093C188.988 81.8025 189.629 81.6957 190.27 81.5889C190.59 81.5889 190.911 81.6423 191.285 81.6423C191.765 81.6423 192.032 81.6423 192.299 81.6423C192.566 81.6423 192.78 81.7491 193.314 81.7491C193.848 81.7491 194.062 81.6957 194.329 81.6957C194.596 81.6957 194.863 81.6957 195.397 81.6957C195.877 81.6957 196.144 81.6423 196.411 81.6423C196.678 81.6423 196.892 81.5889 197.426 81.5889H199.509C199.989 81.5889 200.256 81.6423 200.523 81.6423C200.79 81.6423 201.004 81.7491 201.538 81.7491C202.072 81.7491 202.286 81.7491 202.553 81.7491C202.82 81.7491 203.087 81.6957 203.621 81.6957C204.261 81.6957 204.689 82.1763 204.689 82.8171C204.689 83.2977 204.742 83.5647 204.795 83.7783C204.795 84.0454 204.902 84.259 204.902 84.7396C204.902 85.2202 204.795 85.4872 204.795 85.7008C204.795 85.9678 204.742 86.1814 204.742 86.6621V88.5845C204.742 89.2254 204.742 89.8662 204.742 90.507C204.742 90.9876 204.689 91.2546 204.689 91.4683C204.689 92.1091 204.689 92.7499 204.689 93.3907C204.689 93.6577 204.689 93.8713 204.689 94.352C204.689 94.8326 204.635 95.0996 204.689 95.3132C204.689 95.5802 204.902 95.7938 204.902 96.2744C204.902 96.7551 204.689 97.0221 204.689 97.2357C204.689 97.8765 204.689 98.5173 204.689 99.1582C204.689 99.4252 204.795 99.6388 204.795 100.119C204.795 100.6 204.742 100.867 204.742 101.081C204.742 101.348 204.742 101.561 204.742 102.042C204.742 102.522 204.635 102.79 204.689 103.003C204.689 103.27 204.742 103.484 204.742 103.964C204.742 104.445 204.742 104.712 204.742 104.926C204.742 105.193 204.849 105.406 204.849 105.887C204.849 106.367 204.742 106.634 204.742 106.848C204.742 107.489 204.742 108.13 204.742 108.771C204.742 109.411 204.742 110.052 204.742 110.693C204.742 110.96 204.795 111.174 204.795 111.654C204.795 112.135 204.902 112.402 204.902 112.615C204.902 112.883 204.795 113.096 204.795 113.577C204.795 114.057 204.795 114.324 204.795 114.538C204.795 114.805 204.902 115.019 204.902 115.499C204.902 115.98 204.849 116.247 204.849 116.46C204.849 116.727 204.742 116.941 204.742 117.422C204.742 117.902 204.849 118.169 204.849 118.383V121.267C204.849 122.228 204.742 122.228 204.742 123.189C204.742 123.83 204.261 124.364 203.621 124.364C202.659 124.364 202.659 124.257 201.751 124.257C200.844 124.257 200.844 124.524 199.936 124.524C199.028 124.524 199.028 124.471 198.067 124.471C197.853 124.471 197.693 124.471 197.533 124.471L196.785 124.417H195.717L194.969 124.471C194.115 124.471 193.154 124.257 193.154 123.189C193.154 122.281 193.314 122.281 193.314 121.373C193.314 121.16 193.314 121 193.314 120.839L193.261 120.092C193.261 119.932 193.261 119.771 193.261 119.558C193.261 118.597 193.314 118.597 193.314 117.689C193.314 116.781 193.207 116.781 193.207 115.873C193.207 114.965 193.154 114.965 193.154 114.004C193.154 113.79 193.154 113.63 193.154 113.47L193.207 112.722C193.207 112.562 193.207 112.402 193.207 112.188C193.207 111.814 193.047 111.494 192.78 111.28C192.513 111.067 192.193 111.013 191.819 111.12C190.964 111.334 190.964 111.334 190.163 111.547C189.309 111.708 189.309 111.708 188.454 111.868C187.6 112.081 187.6 112.081 186.799 112.295C185.944 112.455 185.891 112.295 185.037 112.455C184.503 112.615 184.182 113.15 184.182 113.684C184.182 113.897 184.182 114.111 184.182 114.271L184.236 115.019C184.236 115.179 184.236 115.339 184.236 115.606C184.236 116.567 184.182 116.567 184.182 117.475C184.182 117.689 184.182 117.902 184.182 118.063L184.236 118.81C184.236 118.97 184.236 119.131 184.236 119.398C184.236 120.359 184.022 120.359 184.022 121.32C184.022 122.281 184.236 122.281 184.236 123.189C184.236 123.83 183.648 124.364 183.007 124.364C182.046 124.364 182.046 124.524 181.138 124.524C180.23 124.524 180.23 124.417 179.323 124.417C178.415 124.417 178.415 124.257 177.454 124.257C177.24 124.257 177.08 124.257 176.919 124.257L176.172 124.311C176.012 124.311 175.851 124.311 175.638 124.311C174.73 124.311 174.73 124.471 173.822 124.471C173.128 124.471 172.594 123.83 172.594 123.189C172.594 122.708 172.594 122.441 172.594 122.228C172.594 121.961 172.647 121.694 172.647 121.213V117.208C172.647 116.727 172.594 116.46 172.541 116.247C172.541 115.98 172.487 115.713 172.487 115.232C172.487 114.752 172.487 114.485 172.487 114.218C172.487 114.004 172.647 113.737 172.647 113.256C172.647 112.722 172.541 112.509 172.594 112.242ZM192.299 100.333C192.833 100.226 193.261 99.7456 193.261 99.2116C193.261 98.6775 193.261 98.4639 193.314 98.1969C193.314 97.9299 193.154 97.6629 193.154 97.1823C193.154 96.6483 193.207 96.3812 193.207 96.1676C193.207 95.9006 193.207 95.6336 193.207 95.153C193.207 94.619 193.261 94.352 193.261 94.085C193.207 93.8713 193.207 93.6043 193.207 93.0703C193.207 92.4295 192.727 91.8955 192.086 91.8955C191.498 91.8955 190.857 91.8955 190.27 91.8955C189.896 91.9489 189.576 92.0023 189.309 92.0557C188.721 92.1625 188.027 92.4295 187.44 92.6431C187.119 92.8033 186.745 92.8033 186.478 93.0169C186.211 93.1771 185.998 93.4975 185.731 93.7645L185.677 93.8713L185.624 93.9247L185.357 94.2986C185.357 94.2986 185.357 94.352 185.304 94.352L185.25 94.4588C185.037 94.7792 184.93 95.0996 184.77 95.42C184.663 95.687 184.503 96.0074 184.449 96.3278C184.342 96.6483 184.342 96.9687 184.289 97.2891C184.236 97.6095 184.289 97.9833 184.289 98.3037C184.182 98.8377 184.129 100.119 184.129 100.707C184.129 101.081 184.342 101.401 184.609 101.615C184.876 101.828 185.25 101.988 185.571 101.882C186.425 101.721 186.425 101.721 187.28 101.561C188.134 101.348 188.134 101.294 188.935 101.134C189.789 100.92 189.789 100.814 190.59 100.653C191.445 100.44 191.498 100.547 192.299 100.333ZM219.087 91.4683C219.247 92.2159 219.514 93.2305 220.422 93.2305C220.849 93.2839 221.383 93.1237 221.597 92.5897C221.971 91.7887 221.971 91.7353 222.291 90.9342C222.611 90.0798 222.505 90.0264 222.878 89.172C222.985 88.9583 222.985 88.7447 223.039 88.6379L223.306 87.9437C223.359 87.7835 223.412 87.6767 223.466 87.4631C223.84 86.6087 223.84 86.6087 224.213 85.8076C224.534 84.9532 224.694 85.0066 225.014 84.1522C225.335 83.2977 225.281 83.2977 225.655 82.4433C225.815 82.0161 226.296 81.6423 226.723 81.6423C227.257 81.6423 227.471 81.6423 227.738 81.6423C227.952 81.6423 228.219 81.5889 228.699 81.5889H230.675C231.209 81.5889 231.423 81.7491 231.69 81.7491C231.903 81.8025 232.17 81.7491 232.651 81.7491C233.132 81.7491 233.399 81.8025 233.666 81.8025C233.879 81.8025 234.146 81.6957 234.627 81.6957C235.268 81.6957 235.962 81.6957 236.603 81.6957C237.03 81.6957 237.457 81.8559 237.671 82.1763C237.884 82.4967 237.884 82.9773 237.724 83.3511C237.671 83.5647 237.564 83.6715 237.511 83.8317L237.19 84.526C237.137 84.6328 237.083 84.8464 236.977 85.06C236.603 85.9678 236.603 85.9678 236.229 86.8223C235.908 87.7301 235.855 87.6767 235.481 88.5845C235.107 89.439 235.107 89.439 234.787 90.2934C234.413 91.2012 234.627 91.2546 234.253 92.1625C234.146 92.3761 234.093 92.4829 234.039 92.6431L233.666 93.3373C233.612 93.4441 233.559 93.6577 233.452 93.8713C232.918 95.0462 232.491 96.221 232.064 97.3959C231.69 98.2503 231.636 98.2503 231.316 99.1048C230.942 100.013 230.942 100.013 230.568 100.867C230.194 101.775 230.248 101.775 229.874 102.629C229.554 103.537 229.5 103.484 229.126 104.392C228.806 105.246 228.913 105.299 228.539 106.207C228.432 106.421 228.379 106.581 228.325 106.688L227.898 107.382C227.845 107.489 227.791 107.649 227.685 107.863C227.364 108.771 227.364 108.771 227.044 109.678C226.67 110.533 226.723 110.533 226.403 111.441C226.296 111.654 226.243 111.761 226.189 111.921L225.815 112.615C225.762 112.722 225.709 112.936 225.602 113.15C225.281 114.057 225.281 114.057 224.961 114.965C224.587 115.82 224.48 115.766 224.16 116.674C223.786 117.528 223.893 117.582 223.573 118.49C223.199 119.344 223.199 119.344 222.825 120.199C222.772 120.412 222.665 120.572 222.611 120.733L222.291 121.427C222.238 121.587 222.184 121.747 222.077 121.961C221.704 122.815 221.704 122.815 221.33 123.723C221.169 124.15 220.742 124.364 220.262 124.364C219.781 124.364 219.514 124.417 219.247 124.417H217.271C217.058 124.417 216.791 124.471 216.31 124.471C215.829 124.471 215.562 124.364 215.349 124.364C215.082 124.364 214.815 124.471 214.334 124.471C213.853 124.471 213.586 124.524 213.373 124.524C213.106 124.524 212.839 124.364 212.358 124.364C211.878 124.364 211.611 124.471 211.397 124.471C210.756 124.471 209.902 124.417 209.474 123.883C209.261 123.563 209.101 123.189 209.261 122.815C209.581 121.907 209.741 121.961 210.062 121.053C210.169 120.839 210.222 120.679 210.275 120.519L210.542 119.825C210.596 119.665 210.649 119.504 210.756 119.291C211.076 118.383 211.076 118.383 211.45 117.528C211.557 117.315 211.611 117.155 211.664 116.994L211.931 116.247C211.984 116.087 212.038 115.926 212.145 115.713C212.465 114.858 212.412 114.805 212.785 113.951C213.159 113.043 213.319 113.15 213.693 112.242C214.067 111.387 214.067 111.387 214.441 110.479C214.548 110.212 214.387 109.892 214.281 109.572C213.96 108.717 214.014 108.717 213.64 107.809C213.586 107.596 213.48 107.382 213.426 107.275L213.159 106.581C213.106 106.421 213.052 106.314 212.946 106.1C212.572 105.193 212.572 105.193 212.198 104.338C212.145 104.125 212.038 103.911 211.984 103.804L211.717 103.11C211.664 102.95 211.611 102.843 211.504 102.629C211.397 102.416 211.343 102.255 211.29 102.095L211.076 101.348C211.023 101.187 210.97 101.027 210.863 100.814C210.542 99.9592 210.489 99.9592 210.115 99.1048C209.795 98.1969 209.848 98.1969 209.474 97.3425C209.154 96.4346 209.154 96.4346 208.834 95.5802C208.513 94.6724 208.46 94.7258 208.086 93.8179C207.659 92.6431 207.178 91.4683 206.698 90.3468C206.377 89.439 206.377 89.439 206.003 88.5845C205.683 87.6767 205.79 87.6767 205.416 86.7689C205.095 85.9144 204.882 85.9678 204.508 85.1134C204.188 84.259 204.401 84.1522 204.081 83.2977C203.921 82.8705 203.867 82.4967 204.081 82.2297C204.294 81.9093 204.615 81.6423 205.042 81.6423C205.523 81.6423 205.79 81.6957 206.057 81.6957C206.27 81.6957 206.537 81.6957 207.018 81.6957C207.499 81.6957 207.766 81.7491 208.033 81.7491C208.246 81.7491 208.513 81.8025 208.994 81.8025C209.528 81.8025 209.741 81.6957 210.008 81.6957C210.222 81.6423 210.489 81.6957 210.97 81.6957C211.504 81.6957 211.717 81.7491 211.984 81.7491C212.251 81.7491 212.465 81.5889 212.999 81.5889C213.48 81.5889 213.747 81.7491 213.96 81.7491C214.227 81.7491 214.441 81.7491 214.975 81.7491C215.455 81.7491 215.829 82.0695 215.989 82.5501C216.15 83.0307 216.363 83.2443 216.47 83.5113C216.577 83.7249 216.63 83.992 216.791 84.526C216.951 85.0066 217.004 85.2736 217.058 85.4872C217.164 85.7542 217.325 85.9678 217.485 86.5019C217.645 86.9825 217.698 87.2495 217.752 87.5165C217.805 87.7301 217.859 88.0505 218.019 88.5311C218.179 89.0118 218.232 89.2788 218.339 89.5458C218.393 89.7594 218.606 89.973 218.766 90.507C218.927 90.9876 218.98 91.2546 219.087 91.4683Z" fill="#FFFCF3"/>
</svg>
